<?xml version="1.0" ?><!DOCTYPE svg  PUBLIC '-//W3C//DTD SVG 1.1//EN'  'http://www.w3.org/Graphics/SVG/1.1/DTD/svg11.dtd'><svg height="512px" id="Layer_1" style="enable-background:new 0 0 512 512;" version="1.1" viewBox="0 0 512 512" width="512px" xml:space="preserve" xmlns="http://www.w3.org/2000/svg" xmlns:xlink="http://www.w3.org/1999/xlink"><style type="text/css">
<![CDATA[
	.st0{fill:#AA2020;}
	.st1{fill:#7C5C4F;}
	.st2{fill:#48A1AF;}
	.st3{fill:#AC785B;}
	.st4{fill:#ADE0F7;}
	.st5{fill:#122528;}
	.st6{fill:#E1E2D4;}
	.st7{fill:#E22929;}
	.st8{fill:#E24844;}
	.st9{fill:#E24D87;}
	.st10{fill:#E2607F;}
	.st11{fill:#E27A7A;}
	.st12{fill:#E2D8A6;}
	.st13{fill:#E2D9B3;}
	.st14{fill:#E4E4E4;}
	.st15{fill:#E54615;}
	.st16{fill:#4ABC96;}
	.st17{fill:#E5A079;}
	.st18{fill:#E5A300;}
	.st19{fill:#E5AAAA;}
	.st20{fill:#E5B428;}
	.st21{fill:#E5C2B7;}
	.st22{fill:#E5DCD6;}
	.st23{fill:#178484;}
	.st24{fill:#4BA6DD;}
	.st25{fill:#191E18;}
	.st26{fill:#E7E0DC;}
	.st27{fill:#E7E4E2;}
	.st28{fill:#E85B8A;}
	.st29{fill:#E8BF13;}
	.st30{fill:#E8CA4B;}
	.st31{fill:#E8CDCD;}
	.st32{fill:#E8F4F4;}
	.st33{fill:#4E4F4F;}
	.st34{fill:#4F4846;}
	.st35{fill:#B08C8C;}
	.st36{fill:#B2B2B2;}
	.st37{fill:#1A7877;}
	.st38{fill:#1B1B1B;}
	.st39{fill:#86BFAB;}
	.st40{fill:#EA4949;}
	.st41{fill:#EA950C;}
	.st42{fill:#EA9C00;}
	.st43{fill:#EAC2B0;}
	.st44{fill:#EAD08F;}
	.st45{fill:#EAD988;}
	.st46{fill:#EAE0A7;}
	.st47{fill:#EAE19B;}
	.st48{fill:#B7967F;}
	.st49{fill:#B7E4D5;}
	.st50{fill:#B8D1E5;}
	.st51{fill:#ECBF30;}
	.st52{fill:#ECEDE2;}
	.st53{fill:#ED3232;}
	.st54{fill:#EDB721;}
	.st55{fill:#EDBF00;}
	.st56{fill:#EDC92F;}
	.st57{fill:#EDEDED;}
	.st58{fill:#EE8080;}
	.st59{fill:#514D46;}
	.st60{fill:#EF481B;}
	.st61{fill:#EF4B4B;}
	.st62{fill:#EFBBA0;}
	.st63{fill:#EFBBBB;}
	.st64{fill:#EFC6AF;}
	.st65{fill:#EFC866;}
	.st66{fill:#EFD3D3;}
	.st67{fill:#EFEDEC;}
	.st68{fill:#EFF4F9;}
	.st69{fill:#BA1713;}
	.st70{fill:#57AA39;}
	.st71{fill:#BAADAB;}
	.st72{fill:#8BBEC0;}
	.st73{fill:#8CC3CC;}
	.st74{fill:#599E6B;}
	.st75{fill:#BC9F66;}
	.st76{fill:#BCBCBC;}
	.st77{fill:#8FB5B6;}
	.st78{fill:#228080;}
	.st79{fill:#22A85B;}
	.st80{fill:#F1A6B3;}
	.st81{fill:#235D64;}
	.st82{fill:#F29292;}
	.st83{fill:#242C23;}
	.st84{fill:#F2C7B1;}
	.st85{fill:#F2D249;}
	.st86{fill:#F2ECB3;}
	.st87{fill:#F2EFE2;}
	.st88{fill:#F2EFED;}
	.st89{fill:#24BCB1;}
	.st90{fill:#F47C2C;}
	.st91{fill:#F47D94;}
	.st92{fill:#262626;}
	.st93{fill:#263C92;}
	.st94{fill:#5B3224;}
	.st95{fill:#5B4F3F;}
	.st96{fill:#5B7BAA;}
	.st97{fill:#27C1C1;}
	.st98{fill:#282827;}
	.st99{fill:#28898E;}
	.st100{fill:#28A7AD;}
	.st101{fill:#F781AE;}
	.st102{fill:#5CB7E5;}
	.st103{fill:#F7CA4D;}
	.st104{fill:#F7D64D;}
	.st105{fill:#297358;}
	.st106{fill:#F95E3A;}
	.st107{fill:#5EACB4;}
	.st108{fill:#909090;}
	.st109{fill:#C0C0C0;}
	.st110{fill:#C3C3C3;}
	.st111{fill:#94C5C5;}
	.st112{fill:#C48769;}
	.st113{fill:#C4A10E;}
	.st114{fill:#969595;}
	.st115{fill:#2B6671;}
	.st116{fill:#C6C5C4;}
	.st117{fill:#FAD3D3;}
	.st118{fill:#97E079;}
	.st119{fill:#2D2D2D;}
	.st120{fill:#FBCBAB;}
	.st121{fill:none;stroke:#6E4832;stroke-width:2.2943;stroke-linecap:round;stroke-linejoin:round;stroke-miterlimit:10;}
	.st122{fill:#9996FD;}
	.st123{fill:#FCE2E2;}
	.st124{fill:#C92727;}
	.st125{fill:#C9C9C8;}
	.st126{fill:#2F2E33;}
	.st127{opacity:0.6;}
	.st128{fill:#616262;}
	.st129{fill:#FFFFFF;}
	.st130{fill:#62BB45;}
	.st131{fill:#644B44;}
	.st132{fill:#64A80D;}
	.st133{fill:none;}
	.st134{fill:#CA261D;}
	.st135{fill:#CBBEB9;}
	.st136{fill:#CC8866;}
	.st137{fill:#6997B7;}
	.st138{fill:#CCBF7F;}
	.st139{display:inline;}
	.st140{fill:#9DC3C5;}
	.st141{fill:#CDC6C3;}
	.st142{fill:#CDCCCB;}
	.st143{fill:#CDCDCE;}
	.st144{fill:#CE8505;}
	.st145{fill:#CE8967;}
	.st146{fill:#323531;}
	.st147{fill:#337180;}
	.st148{fill:#353432;}
	.st149{fill:#353535;}
	.st150{fill:#357180;}
	.st151{fill:#367983;}
	.st152{fill:#369975;}
	.st153{fill:#6A7872;}
	.st154{fill:#6AA0C8;}
	.st155{fill:#3786B7;}
	.st156{fill:#6D4F44;}
	.st157{fill:#6D8DC6;}
	.st158{fill:#6E4832;}
	.st159{fill:#D0D1D1;}
	.st160{fill:#D0E3E5;}
	.st161{fill:#D39475;}
	.st162{fill:#D3C2C2;}
	.st163{fill:#3A3A39;}
	.st164{fill:#3A3F39;}
	.st165{fill:#D5CEC9;}
	.st166{fill:#3CA57F;}
	.st167{fill:#090A09;}
	.st168{fill:#D7D7D7;}
	.st169{fill:#D7E2E2;}
	.st170{fill:#3D2F26;}
	.st171{fill:#3D8B93;}
	.st172{fill:#D89898;}
	.st173{fill:#D8BD80;}
	.st174{fill:#D8D1CE;}
	.st175{fill:#D8D8D8;}
	.st176{fill:#D8DBBA;}
	.st177{fill:#D9EDED;}
	.st178{fill:#3F3938;}
	.st179{display:none;}
	.st180{fill:#A2CB6E;}
	.st181{fill:#A2D4DE;}
	.st182{fill:#A3D5E0;}
	.st183{fill:#76C6CE;}
	.st184{fill:#77CCF2;}
	.st185{fill:#77D28E;}
	.st186{fill:#0CA342;}
	.st187{fill:#DB3737;}
	.st188{fill:#DBD6D4;}
	.st189{fill:#DC3735;}
	.st190{fill:#DCD2CC;}
	.st191{fill:#A9A9C8;}
	.st192{fill:#DDB717;}
	.st193{fill:#DDD3CC;}
	.st194{fill:#408921;}
	.st195{fill:#4094D3;}
	.st196{fill:#41979F;}
	.st197{fill:#DFA17C;}
]]>
</style><g><g><g><path class="st40" d="M256.003,7.924c-137.012,0-248.082,111.06-248.082,248.082c0,137.001,111.07,248.07,248.082,248.07     c137.006,0,248.076-111.069,248.076-248.07C504.079,118.983,393.009,7.924,256.003,7.924z"/></g></g><g><g><g><g><g><path class="st154" d="M309.796,237.861c-2.111-3.672-4.416-4.464-7.238-6.055l-47.738-22.309        c-3.478-1.624-9.113-1.624-12.592,0l-47.736,22.309c-3.746,2.118-6.049,4.039-7.488,6.631        c-1.441,2.592-1.824,5.665-2.225,10.271v58.891c0,4.289,3.232,6.013,6.482,7.766l49.16,22.003        c0.215,0,5.338,1.302,8.219,1.302s7.897-1.302,7.897-1.302l49.159-22.003c3.139-1.609,6.482-3.477,6.482-7.766v-58.891        C312.077,244.198,311.819,241.379,309.796,237.861z"/></g></g><g><g><path class="st50" d="M240.763,263.362l-47.088-21.075c-3.43,0-6.208,3.331-6.208,7.438v56.405        c0,4.107,2.704,5.752,6.208,7.438l47.088,21.075c3.428,0,6.208-3.331,6.208-7.438v-52.48        C246.971,270.618,244.9,265.531,240.763,263.362z"/></g></g><g><g><path class="st50" d="M303.283,242.288l-47.087,21.075c-3.619,2.169-6.209,7.255-6.209,11.363v52.48        c0,4.107,2.781,7.438,6.209,7.438l47.087-21.075c3.248-1.542,6.208-3.331,6.208-7.438v-56.405        C309.491,245.618,306.711,242.288,303.283,242.288z"/></g></g><g><g><path class="st50" d="M300.275,233.537l-45.724-21.368c-3.329-1.555-8.729-1.555-12.059,0l-45.723,21.368        c-3.33,1.558-3.33,4.081,0,5.637l45.723,21.366c3.33,1.557,8.729,1.557,12.059,0l45.724-21.366        C303.603,237.618,303.604,235.095,300.275,233.537z"/></g></g></g></g><g><g><g><g><path class="st132" d="M182.281,237.376c-2.112-3.672-4.417-4.464-7.238-6.055l-47.739-22.309        c-3.477-1.624-9.113-1.624-12.59,0l-47.737,22.309c-3.746,2.119-6.05,4.039-7.489,6.631c-1.44,2.592-1.823,5.665-2.225,10.271        v58.89c0,4.289,3.232,6.013,6.482,7.766l49.162,22.003c0.213,0,5.336,1.302,8.217,1.302s7.898-1.302,7.898-1.302        l49.158-22.003c3.141-1.608,6.483-3.477,6.483-7.766v-58.89C184.562,243.713,184.304,240.894,182.281,237.376z"/></g></g><g><g><path class="st180" d="M113.247,262.877l-47.086-21.075c-3.431,0-6.209,3.33-6.209,7.438v56.405        c0,4.108,2.705,5.752,6.209,7.438l47.086,21.075c3.428,0,6.209-3.331,6.209-7.438v-52.479        C119.456,270.133,117.386,265.046,113.247,262.877z"/></g></g><g><g><path class="st180" d="M175.769,241.803l-47.088,21.075c-3.619,2.169-6.208,7.255-6.208,11.364v52.479        c0,4.107,2.78,7.438,6.208,7.438l47.088-21.075c3.248-1.542,6.208-3.33,6.208-7.438v-56.405        C181.977,245.133,179.196,241.803,175.769,241.803z"/></g></g><g><g><path class="st180" d="M172.761,233.052l-45.724-21.368c-3.329-1.555-8.729-1.555-12.059,0l-45.724,21.368        c-3.329,1.558-3.329,4.081,0,5.637l45.724,21.366c3.329,1.557,8.729,1.557,12.059,0l45.724-21.366        C176.089,237.133,176.091,234.61,172.761,233.052z"/></g></g></g></g><g><g><g><g><path class="st154" d="M247.251,266.952c-2.111-3.672-4.416-4.464-7.238-6.055l-47.738-22.309        c-3.479-1.624-9.114-1.624-12.592,0l-47.736,22.309c-3.746,2.118-6.049,4.039-7.488,6.631        c-1.441,2.592-1.824,5.665-2.226,10.271v58.891c0,4.289,3.233,6.013,6.483,7.766l49.16,22.003        c0.215,0,5.338,1.302,8.218,1.302c2.881,0,7.897-1.302,7.897-1.302l49.159-22.003c3.14-1.609,6.483-3.477,6.483-7.766v-58.891        C249.531,273.289,249.273,270.47,247.251,266.952z"/></g></g><g><g><path class="st50" d="M178.217,292.453l-47.087-21.075c-3.43,0-6.209,3.331-6.209,7.438v56.405        c0,4.108,2.705,5.752,6.209,7.438l47.087,21.075c3.429,0,6.208-3.331,6.208-7.438v-52.48        C184.425,299.709,182.355,294.622,178.217,292.453z"/></g></g><g><g><path class="st50" d="M240.737,271.378l-47.086,21.075c-3.62,2.169-6.209,7.256-6.209,11.363v52.48        c0,4.107,2.78,7.438,6.209,7.438l47.086-21.075c3.248-1.542,6.209-3.33,6.209-7.438v-56.405        C246.946,274.709,244.165,271.378,240.737,271.378z"/></g></g><g><g><path class="st50" d="M237.729,262.628l-45.723-21.368c-3.33-1.555-8.729-1.555-12.059,0l-45.724,21.368        c-3.329,1.558-3.329,4.081,0,5.637l45.724,21.367c3.33,1.557,8.729,1.557,12.059,0l45.723-21.367        C241.058,266.708,241.06,264.186,237.729,262.628z"/></g></g></g></g><g><g><g><g><path class="st41" d="M309.796,161.902c-2.111-3.672-4.416-4.465-7.238-6.055l-47.738-22.309        c-3.478-1.624-9.113-1.624-12.592,0l-47.736,22.309c-3.746,2.119-6.049,4.039-7.488,6.631        c-1.441,2.592-1.824,5.664-2.225,10.271v58.89c0,4.289,3.232,6.013,6.482,7.766l49.16,22.003c0.215,0,5.338,1.302,8.219,1.302        s7.897-1.302,7.897-1.302l49.159-22.003c3.139-1.609,6.482-3.477,6.482-7.766v-58.89        C312.077,168.239,311.819,165.42,309.796,161.902z"/></g></g><g><g><path class="st30" d="M240.763,187.403l-47.088-21.075c-3.43,0-6.208,3.331-6.208,7.438v56.405        c0,4.108,2.704,5.752,6.208,7.438l47.088,21.075c3.428,0,6.208-3.331,6.208-7.438v-52.479        C246.971,194.659,244.9,189.572,240.763,187.403z"/></g></g><g><g><path class="st30" d="M303.283,166.328l-47.087,21.075c-3.619,2.169-6.209,7.255-6.209,11.363v52.479        c0,4.107,2.781,7.438,6.209,7.438l47.087-21.075c3.248-1.542,6.208-3.331,6.208-7.438v-56.405        C309.491,169.659,306.711,166.328,303.283,166.328z"/></g></g><g><g><path class="st30" d="M300.275,157.578l-45.724-21.368c-3.329-1.555-8.729-1.555-12.059,0l-45.723,21.368        c-3.33,1.558-3.33,4.08,0,5.637l45.723,21.366c3.33,1.557,8.729,1.557,12.059,0l45.724-21.366        C303.603,161.658,303.604,159.136,300.275,157.578z"/></g></g></g></g><g><g><g><g><path class="st154" d="M309.796,87.236c-2.111-3.672-4.416-4.465-7.238-6.055l-47.738-22.309        c-3.478-1.624-9.113-1.624-12.592,0l-47.736,22.309c-3.746,2.119-6.049,4.039-7.488,6.631        c-1.441,2.592-1.824,5.664-2.225,10.27v58.891c0,4.289,3.232,6.013,6.482,7.766l49.16,22.003c0.215,0,5.338,1.301,8.219,1.301        s7.897-1.301,7.897-1.301l49.159-22.003c3.139-1.609,6.482-3.477,6.482-7.766V98.082        C312.077,93.572,311.819,90.753,309.796,87.236z"/></g></g><g><g><path class="st50" d="M240.763,112.736l-47.088-21.075c-3.43,0-6.208,3.331-6.208,7.438v56.405        c0,4.108,2.704,5.752,6.208,7.438l47.088,21.075c3.428,0,6.208-3.331,6.208-7.438V124.1        C246.971,119.992,244.9,114.906,240.763,112.736z"/></g></g><g><g><path class="st50" d="M303.283,91.662l-47.087,21.075c-3.619,2.169-6.209,7.256-6.209,11.364v52.479        c0,4.107,2.781,7.438,6.209,7.438l47.087-21.075c3.248-1.542,6.208-3.331,6.208-7.438V99.1        C309.491,94.992,306.711,91.662,303.283,91.662z"/></g></g><g><g><path class="st50" d="M300.275,82.911l-45.724-21.367c-3.329-1.555-8.729-1.555-12.059,0l-45.723,21.367        c-3.33,1.558-3.33,4.081,0,5.638l45.723,21.366c3.33,1.557,8.729,1.557,12.059,0l45.724-21.366        C303.603,86.992,303.604,84.469,300.275,82.911z"/></g></g></g></g><g><g><g><g><path class="st132" d="M374.854,266.467c-2.113-3.672-4.416-4.464-7.24-6.055l-47.736-22.309        c-3.478-1.624-9.113-1.624-12.592,0l-47.736,22.309c-3.746,2.118-6.051,4.039-7.49,6.631        c-1.439,2.592-1.824,5.665-2.225,10.271v58.891c0,4.289,3.232,6.013,6.484,7.766l49.158,22.003        c0.217,0,5.34,1.302,8.221,1.302c2.879,0,7.896-1.302,7.896-1.302l49.161-22.003c3.14-1.609,6.482-3.477,6.482-7.766v-58.891        C377.134,272.804,376.878,269.984,374.854,266.467z"/></g></g><g><g><path class="st180" d="M305.819,291.968l-47.086-21.075c-3.43,0-6.21,3.331-6.21,7.438v56.405c0,4.108,2.704,5.752,6.21,7.438        l47.086,21.075c3.428,0,6.208-3.331,6.208-7.438v-52.479C312.027,299.224,309.959,294.137,305.819,291.968z"/></g></g><g><g><path class="st180" d="M368.34,270.893l-47.085,21.075c-3.621,2.169-6.209,7.256-6.209,11.364v52.479        c0,4.107,2.779,7.438,6.209,7.438l47.085-21.075c3.25-1.542,6.21-3.331,6.21-7.438v-56.405        C374.55,274.224,371.769,270.893,368.34,270.893z"/></g></g><g><g><path class="st180" d="M365.332,262.143l-45.722-21.367c-3.331-1.555-8.729-1.555-12.059,0l-45.723,21.367        c-3.33,1.558-3.332,4.081,0,5.637l45.723,21.367c3.33,1.557,8.729,1.557,12.059,0l45.722-21.367        C368.661,266.223,368.661,263.7,365.332,262.143z"/></g></g></g></g><g><g><g><g><path class="st41" d="M438.854,296.042c-2.113-3.672-4.416-4.464-7.24-6.055l-47.736-22.309        c-3.478-1.624-9.113-1.624-12.592,0l-47.736,22.309c-3.746,2.118-6.051,4.039-7.49,6.631        c-1.439,2.592-1.824,5.665-2.225,10.271v58.891c0,4.289,3.232,6.013,6.484,7.766l49.158,22.003        c0.217,0,5.34,1.302,8.221,1.302c2.879,0,7.895-1.302,7.895-1.302l49.162-22.003c3.14-1.609,6.482-3.477,6.482-7.766v-58.891        C441.134,302.379,440.878,299.56,438.854,296.042z"/></g></g><g><g><path class="st30" d="M369.819,321.543l-47.086-21.075c-3.43,0-6.21,3.331-6.21,7.438v56.405c0,4.108,2.704,5.752,6.21,7.438        l47.086,21.075c3.428,0,6.208-3.331,6.208-7.438v-52.479C376.027,328.799,373.959,323.712,369.819,321.543z"/></g></g><g><g><path class="st30" d="M432.34,300.469l-47.085,21.075c-3.621,2.169-6.209,7.256-6.209,11.364v52.479        c0,4.107,2.779,7.438,6.209,7.438l47.085-21.075c3.249-1.542,6.21-3.33,6.21-7.438v-56.405        C438.55,303.799,435.769,300.469,432.34,300.469z"/></g></g><g><g><path class="st30" d="M429.332,291.718l-45.722-21.368c-3.331-1.555-8.729-1.555-12.059,0l-45.723,21.368        c-3.33,1.558-3.332,4.081,0,5.637l45.723,21.366c3.33,1.557,8.729,1.557,12.059,0l45.722-21.366        C432.661,295.799,432.661,293.276,429.332,291.718z"/></g></g></g></g></g></g></svg>