<?xml version="1.0" ?><!DOCTYPE svg  PUBLIC '-//W3C//DTD SVG 1.0//EN'  'http://www.w3.org/TR/2001/REC-SVG-20010904/DTD/svg10.dtd'><svg height="110px" style="enable-background:new 0 0 110 110;" version="1.0" viewBox="0 0 110 110" width="110px" xml:space="preserve" xmlns="http://www.w3.org/2000/svg" xmlns:xlink="http://www.w3.org/1999/xlink"><g id="Multicolor"><g><g><path d="M79,27c0-2.209-1.791-4-4-4H35c-2.209,0-4,1.791-4,4v56c0,2.209,1.791,4,4,4h40     c2.209,0,4-1.791,4-4V27z" style="fill:#F0F1F1;"/></g><g><path d="M78,24.346C77.268,23.526,76.214,23,75.027,23h-40c-2.209,0-4,1.791-4,4v44.319L78,24.346z" style="fill:#FFFFFF;"/></g><g><path d="M55,35c4.669,8.325,9.907,15.228,16,20c-6.093,4.772-11.331,11.676-16,20     c-4.669-8.325-9.907-15.228-16-20C44.333,51,49.667,44.333,55,35z" style="fill:#DF2C2C;"/></g><g><path d="M55,35c-5.333,9.333-10.667,16-16,20c1.512,1.184,2.971,2.501,4.382,3.937l16.346-16.345     C58.088,40.219,56.511,37.693,55,35z" style="fill:#FA5655;"/></g></g></g></svg>